<svg xmlns="http://www.w3.org/2000/svg" viewBox="0 0 381.85 381"><title>Xiaomi logo</title><path d="M256.67,446.42c-30.3-.38-60.57-.61-90.49-7a117.44,117.44,0,0,1-93-94.54,482.55,482.55,0,0,1,.08-176.33c9.89-52.06,42.9-84,94.39-95.42,45.72-10,92.1-8.17,138.55-5.65,26.41,1.45,52,6.45,75.69,19.39,31.18,17.18,49.2,44.24,57,78.28,10.27,44.81,8.47,90.38,6.6,135.84a209.92,209.92,0,0,1-11.07,61.79A112.06,112.06,0,0,1,363.84,434c-27.52,10.11-56.22,11.45-85.07,12.44C271.4,446.61,264,446.42,256.67,446.42Z" transform="translate(-65.08 -65.5)" style="fill:#e9620b"/><path d="M371.09,184.59H339.26a2.48,2.48,0,0,0-2.48,2.44V332.68a2.52,2.52,0,0,0,2.48,2.48h31.83a2.48,2.48,0,0,0,2.44-2.48V187a2.44,2.44,0,0,0-2.44-2.44" transform="translate(-65.08 -65.5)" style="fill:#fff"/><path d="M262.2,184.59H140.72a2.44,2.44,0,0,0-2.44,2.44V332.68a2.48,2.48,0,0,0,2.44,2.48h31.83a2.52,2.52,0,0,0,2.48-2.48V218.52a2.52,2.52,0,0,1,2.48-2.48h68.7a23.28,23.28,0,0,1,24.85,24.27v92.36a2.52,2.52,0,0,0,2.48,2.48h31.83a2.48,2.48,0,0,0,2.44-2.48V229.32a41,41,0,0,0-11.91-31.49,42.52,42.52,0,0,0-33.59-13.24" transform="translate(-65.08 -65.5)" style="fill:#fff"/><path d="M239.88,242.53H206.29a2.48,2.48,0,0,0-2.44,2.44v87.71a2.44,2.44,0,0,0,2.44,2.44h33.59a2.48,2.48,0,0,0,2.48-2.44V244.9a2.52,2.52,0,0,0-2.48-2.44" transform="translate(-65.08 -65.5)" style="fill:#fff"/></svg>